<svg xmlns="http://www.w3.org/2000/svg" viewBox="0 0 634.73 75.36"><defs><style>.cls-1{fill:none;stroke:#000;stroke-miterlimit:10;stroke-width:3px;}</style></defs><g id="Calque_2" data-name="Calque 2"><g id="Calque_1-2" data-name="Calque 1"><path class="cls-1" d="M22.39,56.22V34L2.67,1.5h16L29.81,23.24,40.9,1.5H56.52L36.72,34V56.22Z"/><path class="cls-1" d="M73.66,57.37q-8.86,0-13.43-4.46t-4.57-13V19.07h13.1V39.44q0,6.35,5,6.34a4.31,4.31,0,0,0,3.67-1.51,8,8,0,0,0,1.15-4.83V19.07H91.66V39.88q0,8.57-4.57,13T73.66,57.37Z"/><path class="cls-1" d="M100.08,56.22V19.07h12.67l.15,4.53a10.4,10.4,0,0,1,4.28-4.21,13.39,13.39,0,0,1,6.37-1.47q7.71,0,10.88,6.12a11,11,0,0,1,4.64-4.5,14.63,14.63,0,0,1,7-1.62q6.4,0,9.72,4t3.31,11.7V56.22h-13V36.06q0-6.55-4.82-6.55-5.27,0-5.26,7.05V56.22h-13V36.06q0-6.55-4.82-6.55-5.19,0-5.19,7.05V56.22Z"/><path class="cls-1" d="M167.47,56.22V19.07h12.68l.14,4.53a10.46,10.46,0,0,1,4.28-4.21A13.43,13.43,0,0,1,191,17.92q7.7,0,10.87,6.12a11,11,0,0,1,4.64-4.5,14.63,14.63,0,0,1,6.95-1.62q6.41,0,9.72,4t3.31,11.7V56.22h-13V36.06q0-6.55-4.82-6.55-5.26,0-5.26,7.05V56.22h-13V36.06q0-6.55-4.82-6.55-5.19,0-5.19,7.05V56.22Z"/><path class="cls-1" d="M236.31,73.86l9.28-19.66L230.33,19.07h14.33l7.56,21.81,7-21.81h14L249.41,73.86Z"/><path class="cls-1" d="M276.91,40.81V30.23h23V40.81Z"/><path class="cls-1" d="M326.66,57.37a21.35,21.35,0,0,1-10.51-2.55,19.08,19.08,0,0,1-9.93-17.18,19.39,19.39,0,0,1,2.66-10.15,19.12,19.12,0,0,1,7.31-7,22.87,22.87,0,0,1,21,0,19,19,0,0,1,9.93,17.17,19.5,19.5,0,0,1-2.66,10.16,19.12,19.12,0,0,1-7.31,7A21.42,21.42,0,0,1,326.66,57.37Zm0-11.59a6.87,6.87,0,0,0,5.33-2.3,8.38,8.38,0,0,0,2.09-5.84A8.33,8.33,0,0,0,332,31.78a6.88,6.88,0,0,0-5.33-2.27,7,7,0,0,0-5.4,2.27,8.32,8.32,0,0,0-2.08,5.86,8.37,8.37,0,0,0,2.08,5.84A7,7,0,0,0,326.66,45.78Z"/><path class="cls-1" d="M353.23,40.81V30.23h23V40.81Z"/><path class="cls-1" d="M387.65,56.22V29.51h-6.27V19.07h6.27V9.49h13v9.58h7.56V29.51h-7.56V56.22Z"/><path class="cls-1" d="M432.94,57.37q-8.87,0-13.43-4.46t-4.57-13V19.07H428V39.44q0,6.35,5,6.34a4.31,4.31,0,0,0,3.67-1.51,8,8,0,0,0,1.15-4.83V19.07h13.11V39.88q0,8.57-4.58,13T432.94,57.37Z"/><path class="cls-1" d="M459.36,56.22V19.07H472l.15,4.53a10.34,10.34,0,0,1,4.28-4.21,13.39,13.39,0,0,1,6.37-1.47q7.71,0,10.87,6.12a11.1,11.1,0,0,1,4.65-4.5,14.61,14.61,0,0,1,6.95-1.62q6.4,0,9.72,4t3.31,11.7V56.22h-13V36.06q0-6.55-4.83-6.55-5.25,0-5.25,7.05V56.22h-13V36.06q0-6.55-4.83-6.55-5.17,0-5.18,7.05V56.22Z"/><path class="cls-1" d="M526.75,56.22V19.07h12.67l.15,4.53a10.4,10.4,0,0,1,4.28-4.21,13.39,13.39,0,0,1,6.37-1.47q7.71,0,10.87,6.12a11.1,11.1,0,0,1,4.65-4.5,14.61,14.61,0,0,1,7-1.62q6.4,0,9.72,4t3.31,11.7V56.22h-13V36.06q0-6.55-4.82-6.55-5.27,0-5.26,7.05V56.22h-13V36.06q0-6.55-4.82-6.55-5.19,0-5.19,7.05V56.22Z"/><path class="cls-1" d="M595.58,73.86l9.29-19.66L589.61,19.07h14.32l7.56,21.81,7-21.81h14L608.69,73.86Z"/></g></g></svg>