<svg width="733" height="269" viewBox="0 0 733 269" fill="none" xmlns="http://www.w3.org/2000/svg">
<path d="M366.74 74.478C351.1 74.478 344.01 76.288 344.01 76.288C335.6 77.448 335.21 84.118 335.21 84.118C335.21 92.588 342.21 99.118 342.21 99.118L328.21 141.118C309.68 197.998 273.92 241.648 273.92 241.648C263.62 251.938 247.21 256.888 247.21 256.888C223.56 264.008 170.86 267.118 170.86 267.118C103.21 269.768 53.21 236.118 53.21 236.118C40.27 227.998 35.4 209.238 35.4 209.238C25.82 179.888 18 123.828 18 123.828C18 112.608 14 106.138 14 106.138L6.35 94.358C2.86 90.868 2 78.588 2 78.588L4.21 45.118L17.87 30.798C90.76 4.79799 162.62 1.79799 162.62 1.79799C242.62 -3.26201 314.1 18.308 314.1 18.308C331.353 22.3918 349.011 24.5153 366.74 24.638C384.469 24.5147 402.127 22.3913 419.38 18.308C419.38 18.308 490.86 -3.29201 570.86 1.76799C570.86 1.76799 642.72 4.76799 715.61 30.768L729.27 45.088L731.47 78.558C731.47 78.558 730.62 90.838 727.13 94.328L719.52 106.108C719.52 106.108 715.52 112.578 715.52 123.798C715.52 123.798 707.71 179.858 698.13 209.208C698.13 209.208 693.26 227.968 680.32 236.088C680.32 236.088 630.32 269.738 562.67 267.088C562.67 267.088 509.97 263.978 486.32 256.858C486.32 256.858 469.9 251.908 459.61 241.618C459.61 241.618 423.85 197.968 405.32 141.088L391.32 99.088C391.32 99.088 398.32 92.558 398.32 84.088C398.32 84.088 397.82 77.758 389.52 76.258C389.47 76.288 382.38 74.478 366.74 74.478Z" stroke="#242625" stroke-width="2" stroke-miterlimit="10"/>
</svg>
