<svg width="346" height="221" viewBox="0 0 346 221" fill="none" xmlns="http://www.w3.org/2000/svg">
<path d="M144.709 128.203L120.312 86.1733V86.1243L120.105 85.772C117.022 80.5355 115.248 74.4119 115.248 67.9053C115.248 61.3174 117.063 55.1926 120.194 49.8611L120.197 49.8549L120.201 49.8488L144.093 8.26876C146.737 4.20583 151.283 1.5418 156.47 1.5H218.071L201.837 29.5902H170.527H170.512L170.494 29.5897C170.462 29.5894 170.419 29.5893 170.365 29.5898C170.258 29.5909 170.11 29.5947 169.927 29.605C169.563 29.6257 169.056 29.6729 168.464 29.7788C167.293 29.9884 165.718 30.4405 164.253 31.4344C162.878 32.3677 161.951 33.3382 161.358 34.0983C161.062 34.4778 160.85 34.8043 160.707 35.0469C160.635 35.1683 160.581 35.2688 160.542 35.3447C160.536 35.3566 160.53 35.3679 160.525 35.3785C160.519 35.3905 160.513 35.4017 160.508 35.412L147.588 57.9557L147.571 57.9852L147.556 58.0155C146.669 59.7406 146.113 61.6917 146.113 63.8099C146.113 65.9641 146.665 67.9705 147.615 69.7219L147.627 69.7423L147.638 69.7624L159.287 89.7196C161.504 94.0635 161.421 99.2802 159.078 103.541L144.709 128.203ZM188.641 59.2182L203.009 34.5584L227.608 76.9373L227.61 76.9408C230.696 82.2256 232.469 88.3072 232.469 94.8561C232.469 101.447 230.653 107.613 227.526 112.896L227.521 112.904L227.516 112.913L203.624 154.537C200.981 158.6 196.434 161.264 191.248 161.305H129.647L145.88 133.215H177.191H177.206L177.223 133.216C177.255 133.216 177.299 133.216 177.352 133.216C177.459 133.215 177.607 133.211 177.79 133.2C178.155 133.18 178.661 133.132 179.253 133.027C180.423 132.817 181.996 132.366 183.459 131.375C184.859 130.441 185.789 129.468 186.381 128.701C186.676 128.318 186.886 127.988 187.027 127.741C187.052 127.697 187.075 127.656 187.096 127.617C187.133 127.548 187.164 127.488 187.189 127.438C187.195 127.425 187.201 127.412 187.207 127.401C187.21 127.395 187.213 127.389 187.216 127.383L200.129 104.85L200.142 104.828L200.153 104.806C201.05 103.112 201.605 101.155 201.605 99.0396C201.605 96.8854 201.053 94.879 200.102 93.1276L200.092 93.1084L200.081 93.0895L188.434 73.0478C186.253 68.6945 186.3 63.5176 188.641 59.2182ZM204.618 209.749L204.618 209.75C203.188 212.235 201.785 214.446 199.792 216.066C197.854 217.64 195.257 218.73 191.297 218.73H143.737C141.705 218.73 139.798 217.873 138.782 216.556C137.857 215.357 137.473 213.517 138.96 210.939L149.044 193.456L149.05 193.446C150.453 190.968 151.856 188.758 153.852 187.14C155.796 185.565 158.405 184.474 162.365 184.474H209.881C211.913 184.474 213.82 185.331 214.835 186.652C215.761 187.856 216.147 189.71 214.656 192.314L204.618 209.749ZM282.416 184.474L280.089 188.52H264.531H263.664L263.231 189.272L246.313 218.686H226.434L242.492 190.768L243.785 188.52H241.192H223.219L225.545 184.474H282.416ZM183.473 211.657L183.477 211.65L183.481 211.643L192.636 195.755C192.636 195.754 192.637 195.752 192.638 195.751C192.837 195.412 193.147 194.862 193.396 194.226C193.637 193.608 193.875 192.775 193.799 191.901C193.717 190.944 193.259 190 192.258 189.357C191.341 188.767 190.108 188.52 188.611 188.52H175.312C173.812 188.52 172.642 188.901 171.734 189.517C170.843 190.121 170.31 190.882 169.969 191.459L169.965 191.467L169.96 191.475L160.807 207.405C160.806 207.407 160.804 207.409 160.803 207.411C160.607 207.746 160.296 208.293 160.048 208.923C159.806 209.537 159.567 210.367 159.643 211.239C159.727 212.196 160.19 213.134 161.191 213.771C162.106 214.353 163.337 214.596 164.831 214.596H178.13C179.63 214.596 180.8 214.215 181.708 213.6C182.6 212.995 183.132 212.234 183.473 211.657ZM84.2136 184.516L81.8754 188.608H40.7344H39.8971L39.4576 189.321L40.7344 190.108L39.4576 189.321L39.4573 189.322L39.4564 189.323L39.4529 189.329L39.4392 189.351L39.3874 189.435L39.202 189.736C39.0484 189.985 38.8431 190.319 38.6363 190.655C38.4297 190.991 38.2211 191.331 38.0611 191.593C37.9813 191.723 37.9125 191.836 37.8618 191.92L37.8539 191.933C37.8351 191.964 37.8009 192.021 37.769 192.076C37.5675 192.409 37.2568 192.946 37.006 193.57C36.7595 194.183 36.5147 195.014 36.5861 195.889C36.6645 196.849 37.1243 197.795 38.129 198.437C39.0476 199.025 40.2857 199.271 41.7913 199.271H68.0374C70.0737 199.271 71.9679 200.119 72.9759 201.428C73.8944 202.62 74.2821 204.463 72.8114 207.069C72.8105 207.07 72.8096 207.072 72.8087 207.073L66.1139 218.686H2.58477L4.9219 214.596H47.7363H48.6104L49.0413 213.835L49.0414 213.835L49.0418 213.835L49.0433 213.832L49.0496 213.821L49.0742 213.777L49.1685 213.612C49.2001 213.556 49.2371 213.491 49.2787 213.418C49.3439 213.304 49.4204 213.17 49.5056 213.021C49.7836 212.536 50.1528 211.896 50.5218 211.266C50.7232 210.934 51.0362 210.394 51.2886 209.766C51.535 209.153 51.7799 208.322 51.7084 207.447C51.63 206.487 51.1702 205.541 50.1655 204.899C49.2469 204.312 48.0089 204.065 46.5032 204.065H20.2571C18.2208 204.065 16.3266 203.217 15.3187 201.909C14.4002 200.717 14.0125 198.874 15.4824 196.269C15.4835 196.267 15.4847 196.265 15.4858 196.263L17.1079 193.457L17.1127 193.449L17.1173 193.441C18.521 190.941 19.9124 188.734 21.9002 187.124C23.8347 185.557 26.442 184.475 30.4285 184.474C30.4289 184.474 30.4293 184.474 30.4297 184.474L84.2136 184.516ZM110.695 191.459L110.69 191.467L110.686 191.475L101.535 207.401C101.334 207.733 101.023 208.271 100.772 208.895C100.525 209.508 100.28 210.339 100.352 211.214C100.43 212.174 100.89 213.12 101.895 213.762C102.813 214.35 104.051 214.596 105.557 214.596H105.579H105.602H105.625H105.647H105.67H105.694H105.717H105.741H105.765H105.789H105.813H105.837H105.862H105.886H105.911H105.936H105.962H105.987H106.013H106.039H106.065H106.091H106.117H106.144H106.171H106.197H106.225H106.252H106.279H106.307H106.335H106.363H106.391H106.419H106.448H106.476H106.505H106.534H106.563H106.593H106.622H106.652H106.682H106.712H106.742H106.772H106.803H106.833H106.864H106.895H106.927H106.958H106.989H107.021H107.053H107.085H107.117H107.149H107.182H107.214H107.247H107.28H107.313H107.347H107.38H107.414H107.447H107.481H107.515H107.549H107.584H107.618H107.653H107.688H107.723H107.758H107.793H107.828H107.864H107.899H107.935H107.971H108.007H108.044H108.08H108.117H108.153H108.19H108.227H108.264H108.302H108.339H108.377H108.414H108.452H108.49H108.528H108.566H108.605H108.643H108.682H108.721H108.76H108.799H108.838H108.877H108.917H108.956H108.996H109.036H109.076H109.116H109.156H109.196H109.237H109.277H109.318H109.359H109.4H109.441H109.482H109.524H109.565H109.607H109.648H109.69H109.732H109.774H109.817H109.859H109.901H109.944H109.987H110.029H110.072H110.115H110.158H110.202H110.245H110.288H110.332H110.376H110.42H110.463H110.507H110.552H110.596H110.64H110.685H110.729H110.774H110.819H110.864H110.909H110.954H110.999H111.044H111.09H111.135H111.181H111.226H111.272H111.318H111.364H111.41H111.456H111.503H111.549H111.596H111.642H111.689H111.736H111.783H111.83H111.877H111.924H111.971H112.018H112.066H112.113H112.161H112.209H112.256H112.304H112.352H112.4H112.448H112.497H112.545H112.593H112.642H112.69H112.739H112.788H112.836H112.885H112.934H112.983H113.032H113.082H113.131H113.18H113.23H113.279H113.329H113.378H113.428H113.478H113.528H113.578H113.628H113.678H113.728H113.778H113.829H113.879H113.929H113.98H114.031H114.081H114.132H114.183H114.234H114.284H114.335H114.386H114.438H114.489H114.54H114.591H114.643H114.694H114.745H114.797H114.849H114.9H114.952H115.004H115.056H115.107H115.159H115.211H115.263H115.315H115.368H115.42H115.472H115.524H115.577H115.629H115.681H115.734H115.786H115.839H115.892H115.944H115.997H116.05H116.103H116.156H116.208H116.261H116.314H116.367H116.42H116.474H116.527H116.58H116.633H116.686H116.74H116.793H116.846H116.9H116.953H117.007H117.06H117.114H117.167H117.221H117.275H117.328H117.382H117.436H117.49H117.543H117.597H117.651H117.705H117.759H117.813H117.867H117.921H117.975H118.029H118.083H118.137H118.191H118.245H118.3H118.354H118.408H118.462H118.516H118.571H118.625H118.679H118.733H118.788H118.842H118.896H118.951H119.005H119.06H119.114H119.168H119.223H119.277H119.332H119.386H119.441H119.495H119.55H119.604H119.659H119.713H119.768H119.822H119.877H119.931H119.986H120.04H120.095H120.149H120.204H120.258H120.313H120.368H120.422H120.477H120.531H120.586H120.64H120.695H120.749H120.804H120.858H120.913H120.967H121.022H121.076H121.131H121.185H121.24H121.294H121.348H121.403H121.457H121.512H121.566H121.62H121.675H121.729H121.783H121.838H121.892H121.946H122.001H122.055H122.109H122.163H122.217H122.272H122.326H122.38H122.434H122.488H122.542H122.596H122.65H122.704H122.758H122.812H122.866H122.92H122.973H123.027H123.081H123.135H123.189H123.242H123.296H123.349H123.403H123.457H123.51H123.564H123.617H123.671H123.724H123.777H123.831H123.884H123.937H123.99H124.043H124.097H124.15H124.203H124.256H124.309H124.362H124.414H124.467H124.52H124.573H124.625H124.678H124.731H124.783H124.836H124.888H124.941H124.993H125.045H125.097H125.15H125.202H125.254H125.306H125.358H125.41H125.462H125.513H125.565H125.617H125.669H125.72H125.772H125.823H125.875H125.926H125.977H126.028H126.08H126.131H126.182H126.233H126.284H126.335H126.385H126.436H126.487H126.537H126.588H126.638H126.689H126.738L124.376 218.686H84.4192C82.383 218.686 80.4888 217.837 79.4808 216.529C78.5622 215.337 78.1745 213.493 79.6452 210.888C79.6461 210.887 79.647 210.885 79.648 210.883L89.7268 193.367L89.7307 193.36L89.7346 193.353C91.1383 190.853 92.5297 188.645 94.5175 187.036C96.4522 185.469 99.0598 184.386 103.047 184.386H144.067L141.719 188.52H116.038C114.538 188.52 113.368 188.901 112.46 189.517C111.569 190.121 111.036 190.882 110.695 191.459ZM343.407 184.474L341.081 188.52H325.523H324.655L324.222 189.272L307.304 218.686H287.426L303.483 190.768L304.776 188.52H302.183H289.011L291.337 184.474H343.407Z" stroke="black" stroke-width="3"/>
</svg>
